<svg xmlns="http://www.w3.org/2000/svg" xmlns:xlink="http://www.w3.org/1999/xlink" width="6912" zoomAndPan="magnify" viewBox="0 0 5184 2592.000001" height="3456" preserveAspectRatio="xMidYMid meet" version="1.0"><defs><g/><clipPath id="5d4b575f17"><path d="M 1754.835938 643.53125 L 2263.960938 643.53125 L 2263.960938 1152.652344 L 1754.835938 1152.652344 Z M 1754.835938 643.53125 " clip-rule="nonzero"/></clipPath><clipPath id="77daf9c125"><path d="M 2009.398438 643.53125 C 1868.808594 643.53125 1754.835938 757.5 1754.835938 898.09375 C 1754.835938 1038.683594 1868.808594 1152.652344 2009.398438 1152.652344 C 2149.988281 1152.652344 2263.960938 1038.683594 2263.960938 898.09375 C 2263.960938 757.5 2149.988281 643.53125 2009.398438 643.53125 Z M 2009.398438 643.53125 " clip-rule="nonzero"/></clipPath><clipPath id="53135e464e"><path d="M 2920.039062 643.53125 L 3429.160156 643.53125 L 3429.160156 1152.652344 L 2920.039062 1152.652344 Z M 2920.039062 643.53125 " clip-rule="nonzero"/></clipPath><clipPath id="2bf9235fc2"><path d="M 3174.601562 643.53125 C 3034.007812 643.53125 2920.039062 757.5 2920.039062 898.09375 C 2920.039062 1038.683594 3034.007812 1152.652344 3174.601562 1152.652344 C 3315.191406 1152.652344 3429.160156 1038.683594 3429.160156 898.09375 C 3429.160156 757.5 3315.191406 643.53125 3174.601562 643.53125 Z M 3174.601562 643.53125 " clip-rule="nonzero"/></clipPath></defs><g clip-path="url(#5d4b575f17)"><g clip-path="url(#77daf9c125)"><path fill="#ffffff" d="M 1754.835938 643.53125 L 2263.960938 643.53125 L 2263.960938 1152.652344 L 1754.835938 1152.652344 Z M 1754.835938 643.53125 " fill-opacity="1" fill-rule="nonzero"/></g></g><g fill="#000000" fill-opacity="1"><g transform="translate(1784.091921, 918.70899)"><g><path d="M 36.703125 -48.140625 L 36.703125 -9.6875 C 36.703125 -8.507812 36.832031 -7.515625 37.09375 -6.703125 C 37.351562 -5.898438 37.828125 -5.25 38.515625 -4.75 C 39.210938 -4.257812 40.164062 -3.910156 41.375 -3.703125 C 42.582031 -3.492188 44.132812 -3.390625 46.03125 -3.390625 L 46.03125 0 L 15.625 0 L 15.625 -3.390625 C 17.394531 -3.390625 18.875 -3.523438 20.0625 -3.796875 C 21.257812 -4.078125 22.21875 -4.476562 22.9375 -5 C 23.65625 -5.519531 24.160156 -6.171875 24.453125 -6.953125 C 24.753906 -7.734375 24.90625 -8.644531 24.90625 -9.6875 L 24.90625 -48.140625 C 20.800781 -48.140625 17.5 -48.109375 15 -48.046875 C 12.5 -47.984375 11.050781 -47.882812 10.65625 -47.75 C 9.976562 -47.539062 9.398438 -47.222656 8.921875 -46.796875 C 8.441406 -46.367188 8.023438 -45.78125 7.671875 -45.03125 C 7.316406 -44.289062 7.007812 -43.359375 6.75 -42.234375 C 6.488281 -41.117188 6.21875 -39.785156 5.9375 -38.234375 L 2.34375 -38.234375 C 2.363281 -38.546875 2.410156 -39.109375 2.484375 -39.921875 C 2.566406 -40.742188 2.660156 -41.6875 2.765625 -42.75 C 2.867188 -43.820312 2.976562 -44.957031 3.09375 -46.15625 C 3.21875 -47.351562 3.332031 -48.484375 3.4375 -49.546875 C 3.539062 -50.617188 3.632812 -51.5625 3.71875 -52.375 C 3.8125 -53.195312 3.875 -53.765625 3.90625 -54.078125 L 6.671875 -54.078125 C 7.066406 -53.765625 7.394531 -53.515625 7.65625 -53.328125 C 7.914062 -53.148438 8.148438 -53.007812 8.359375 -52.90625 C 8.566406 -52.800781 8.765625 -52.734375 8.953125 -52.703125 C 9.148438 -52.679688 9.367188 -52.671875 9.609375 -52.671875 L 50.921875 -52.671875 C 52.535156 -52.671875 53.890625 -53.140625 54.984375 -54.078125 L 57.75 -54.078125 C 57.78125 -53.765625 57.832031 -53.195312 57.90625 -52.375 C 57.988281 -51.5625 58.082031 -50.617188 58.1875 -49.546875 C 58.289062 -48.484375 58.398438 -47.359375 58.515625 -46.171875 C 58.628906 -44.984375 58.738281 -43.851562 58.84375 -42.78125 C 58.945312 -41.71875 59.035156 -40.769531 59.109375 -39.9375 C 59.191406 -39.113281 59.25 -38.546875 59.28125 -38.234375 L 55.765625 -38.234375 C 55.367188 -40.515625 54.96875 -42.316406 54.5625 -43.640625 C 54.164062 -44.972656 53.640625 -45.972656 52.984375 -46.640625 C 52.335938 -47.304688 51.507812 -47.722656 50.5 -47.890625 C 49.5 -48.054688 48.191406 -48.140625 46.578125 -48.140625 Z M 36.703125 -48.140625 "/></g></g></g><g fill="#000000" fill-opacity="1"><g transform="translate(1845.780841, 918.70899)"><g><path d="M 26.234375 -21.046875 C 26.109375 -24.398438 25.554688 -26.972656 24.578125 -28.765625 C 23.597656 -30.566406 22.144531 -31.46875 20.21875 -31.46875 C 19.46875 -31.46875 18.726562 -31.265625 18 -30.859375 C 17.269531 -30.460938 16.625 -29.875 16.0625 -29.09375 C 15.507812 -28.3125 15.054688 -27.363281 14.703125 -26.25 C 14.347656 -25.144531 14.171875 -23.890625 14.171875 -22.484375 C 14.171875 -22.273438 14.175781 -22.035156 14.1875 -21.765625 C 14.207031 -21.492188 14.226562 -21.253906 14.25 -21.046875 Z M 37.21875 -9.921875 C 36.125 -8.410156 34.910156 -6.992188 33.578125 -5.671875 C 32.253906 -4.359375 30.847656 -3.222656 29.359375 -2.265625 C 27.671875 -1.273438 25.957031 -0.503906 24.21875 0.046875 C 22.488281 0.609375 20.753906 0.890625 19.015625 0.890625 C 16.828125 0.890625 14.796875 0.488281 12.921875 -0.3125 C 11.046875 -1.113281 9.410156 -2.265625 8.015625 -3.765625 C 6.628906 -5.265625 5.546875 -7.082031 4.765625 -9.21875 C 3.984375 -11.351562 3.59375 -13.75 3.59375 -16.40625 C 3.59375 -19.082031 4.019531 -21.582031 4.875 -23.90625 C 5.738281 -26.238281 6.957031 -28.265625 8.53125 -29.984375 C 10.101562 -31.703125 12.003906 -33.054688 14.234375 -34.046875 C 16.460938 -35.035156 18.941406 -35.53125 21.671875 -35.53125 C 23.546875 -35.53125 25.28125 -35.226562 26.875 -34.625 C 28.476562 -34.03125 29.898438 -33.207031 31.140625 -32.15625 C 32.378906 -31.101562 33.421875 -29.835938 34.265625 -28.359375 C 35.109375 -26.890625 35.710938 -25.285156 36.078125 -23.546875 C 36.285156 -22.660156 36.539062 -21.945312 36.84375 -21.40625 C 37.144531 -20.875 37.515625 -20.46875 37.953125 -20.1875 L 37.953125 -17.6875 L 14.484375 -17.6875 C 14.742188 -16.175781 15.191406 -14.691406 15.828125 -13.234375 C 16.472656 -11.773438 17.253906 -10.472656 18.171875 -9.328125 C 19.097656 -8.179688 20.125 -7.25 21.25 -6.53125 C 22.382812 -5.820312 23.59375 -5.46875 24.875 -5.46875 C 26.351562 -5.46875 27.953125 -5.976562 29.671875 -7 C 31.390625 -8.03125 33.226562 -9.550781 35.1875 -11.5625 Z M 37.21875 -9.921875 "/></g></g></g><g fill="#000000" fill-opacity="1"><g transform="translate(1886.308119, 918.70899)"><g><path d="M 38.859375 -8.203125 C 36.847656 -5.285156 34.382812 -3.039062 31.46875 -1.46875 C 28.550781 0.101562 25.234375 0.890625 21.515625 0.890625 C 14.378906 0.890625 9.222656 -1.800781 6.046875 -7.1875 C 5.296875 -8.488281 4.722656 -9.847656 4.328125 -11.265625 C 3.941406 -12.679688 3.75 -14.210938 3.75 -15.859375 C 3.75 -19.523438 4.722656 -22.878906 6.671875 -25.921875 C 7.609375 -27.378906 8.738281 -28.6875 10.0625 -29.84375 C 11.394531 -31.007812 12.910156 -32.035156 14.609375 -32.921875 C 17.992188 -34.660156 21.675781 -35.53125 25.65625 -35.53125 C 27.394531 -35.53125 29.039062 -35.359375 30.59375 -35.015625 C 32.144531 -34.679688 33.5 -34.203125 34.65625 -33.578125 C 35.8125 -32.953125 36.726562 -32.191406 37.40625 -31.296875 C 38.082031 -30.398438 38.421875 -29.390625 38.421875 -28.265625 C 38.421875 -25.453125 36.988281 -24.046875 34.125 -24.046875 C 32.019531 -24.046875 29.882812 -25.296875 27.71875 -27.796875 C 25.507812 -30.296875 23.597656 -31.546875 21.984375 -31.546875 C 20.910156 -31.546875 19.9375 -31.203125 19.0625 -30.515625 C 18.195312 -29.828125 17.453125 -28.898438 16.828125 -27.734375 C 16.203125 -26.578125 15.71875 -25.222656 15.375 -23.671875 C 15.039062 -22.128906 14.875 -20.5 14.875 -18.78125 C 14.875 -16.644531 15.117188 -14.648438 15.609375 -12.796875 C 16.109375 -10.953125 16.820312 -9.347656 17.75 -7.984375 C 18.675781 -6.617188 19.785156 -5.546875 21.078125 -4.765625 C 22.378906 -3.984375 23.851562 -3.59375 25.5 -3.59375 C 27.34375 -3.59375 29.179688 -4.101562 31.015625 -5.125 C 32.859375 -6.15625 34.613281 -7.632812 36.28125 -9.5625 Z M 38.859375 -8.203125 "/></g></g></g><g fill="#000000" fill-opacity="1"><g transform="translate(1927.772444, 918.70899)"><g><path d="M 16.984375 -8.546875 C 16.984375 -7.296875 17.070312 -6.285156 17.25 -5.515625 C 17.4375 -4.753906 17.707031 -4.171875 18.0625 -3.765625 C 18.414062 -3.359375 18.863281 -3.085938 19.40625 -2.953125 C 19.945312 -2.828125 20.582031 -2.765625 21.3125 -2.765625 L 22.25 -2.765625 L 22.25 0 L 0.703125 0 L 0.703125 -2.765625 L 1.984375 -2.765625 C 3.023438 -2.765625 3.851562 -2.875 4.46875 -3.09375 C 5.082031 -3.320312 5.546875 -3.675781 5.859375 -4.15625 C 6.171875 -4.632812 6.363281 -5.265625 6.4375 -6.046875 C 6.519531 -6.828125 6.5625 -7.765625 6.5625 -8.859375 L 6.5625 -45.84375 C 6.5625 -46.644531 6.492188 -47.273438 6.359375 -47.734375 C 6.234375 -48.191406 5.988281 -48.5625 5.625 -48.84375 C 5.257812 -49.132812 4.742188 -49.390625 4.078125 -49.609375 C 3.410156 -49.828125 2.546875 -50.109375 1.484375 -50.453125 L 1.484375 -52.4375 C 1.660156 -52.519531 2.085938 -52.671875 2.765625 -52.890625 C 3.441406 -53.109375 4.242188 -53.359375 5.171875 -53.640625 C 6.097656 -53.929688 7.085938 -54.238281 8.140625 -54.5625 C 9.191406 -54.894531 10.179688 -55.207031 11.109375 -55.5 C 12.035156 -55.800781 12.84375 -56.054688 13.53125 -56.265625 C 14.21875 -56.472656 14.65625 -56.601562 14.84375 -56.65625 L 16.984375 -56.65625 L 16.984375 -29.09375 C 23.078125 -33.382812 28.140625 -35.53125 32.171875 -35.53125 C 34.148438 -35.53125 35.835938 -34.9375 37.234375 -33.75 C 38.628906 -32.570312 39.6875 -30.925781 40.40625 -28.8125 C 40.75 -27.695312 40.988281 -26.445312 41.125 -25.0625 C 41.269531 -23.6875 41.34375 -22.148438 41.34375 -20.453125 L 41.34375 -9.375 C 41.34375 -8.300781 41.378906 -7.375 41.453125 -6.59375 C 41.535156 -5.8125 41.65625 -5.226562 41.8125 -4.84375 C 42.019531 -4.1875 42.429688 -3.675781 43.046875 -3.3125 C 43.660156 -2.945312 44.367188 -2.765625 45.171875 -2.765625 L 46.03125 -2.765625 L 46.03125 0 L 26.046875 0 L 26.046875 -2.765625 L 26.703125 -2.765625 C 27.535156 -2.765625 28.234375 -2.847656 28.796875 -3.015625 C 29.359375 -3.191406 29.804688 -3.503906 30.140625 -3.953125 C 30.484375 -4.410156 30.71875 -5.035156 30.84375 -5.828125 C 30.976562 -6.628906 31.046875 -7.640625 31.046875 -8.859375 L 31.046875 -21.671875 C 31.046875 -26.617188 29.222656 -29.09375 25.578125 -29.09375 C 24.398438 -29.09375 23.054688 -28.804688 21.546875 -28.234375 C 20.046875 -27.660156 18.523438 -26.878906 16.984375 -25.890625 Z M 16.984375 -8.546875 "/></g></g></g><g fill="#000000" fill-opacity="1"><g transform="translate(1975.444705, 918.70899)"><g><path d="M 41.9375 -7.765625 C 41.9375 -6.859375 42.019531 -6.09375 42.1875 -5.46875 C 42.351562 -4.84375 42.628906 -4.332031 43.015625 -3.9375 C 43.410156 -3.550781 43.914062 -3.265625 44.53125 -3.078125 C 45.144531 -2.898438 45.878906 -2.796875 46.734375 -2.765625 L 46.734375 0 L 26.671875 0 L 26.671875 -2.765625 C 27.554688 -2.847656 28.300781 -3.078125 28.90625 -3.453125 C 29.519531 -3.828125 30.019531 -4.382812 30.40625 -5.125 C 30.800781 -5.875 31.085938 -6.835938 31.265625 -8.015625 C 31.453125 -9.203125 31.546875 -10.628906 31.546875 -12.296875 L 31.546875 -19.6875 C 31.546875 -25.875 29.816406 -28.96875 26.359375 -28.96875 C 25.179688 -28.96875 23.828125 -28.640625 22.296875 -27.984375 C 20.765625 -27.335938 19.140625 -26.414062 17.421875 -25.21875 L 17.421875 -8.203125 C 17.421875 -4.578125 19.070312 -2.765625 22.375 -2.765625 L 23.15625 -2.765625 L 23.15625 0 L 1.71875 0 L 1.71875 -2.765625 L 2.21875 -2.765625 C 3.96875 -2.765625 5.207031 -3.21875 5.9375 -4.125 C 6.664062 -5.039062 7.03125 -6.539062 7.03125 -8.625 L 7.03125 -25.109375 C 7.03125 -25.941406 6.691406 -26.675781 6.015625 -27.3125 C 5.335938 -27.945312 4.375 -28.472656 3.125 -28.890625 C 3.039062 -28.941406 2.925781 -28.988281 2.78125 -29.03125 C 2.644531 -29.070312 2.5625 -29.078125 2.53125 -29.046875 C 2.375 -29.097656 2.203125 -29.160156 2.015625 -29.234375 C 1.835938 -29.316406 1.609375 -29.382812 1.328125 -29.4375 L 1.328125 -31.546875 C 1.585938 -31.628906 2.085938 -31.800781 2.828125 -32.0625 C 3.566406 -32.320312 4.429688 -32.613281 5.421875 -32.9375 C 6.410156 -33.257812 7.457031 -33.613281 8.5625 -34 C 9.675781 -34.394531 10.726562 -34.753906 11.71875 -35.078125 C 12.707031 -35.410156 13.570312 -35.707031 14.3125 -35.96875 C 15.050781 -36.226562 15.539062 -36.394531 15.78125 -36.46875 L 17.421875 -36.46875 L 17.421875 -28.9375 C 20.742188 -31.144531 23.6875 -32.796875 26.25 -33.890625 C 28.820312 -34.984375 31.082031 -35.53125 33.03125 -35.53125 C 36.207031 -35.53125 38.484375 -34.335938 39.859375 -31.953125 C 41.242188 -29.578125 41.9375 -25.898438 41.9375 -20.921875 Z M 41.9375 -7.765625 "/></g></g></g><g fill="#000000" fill-opacity="1"><g transform="translate(2023.936893, 918.70899)"><g><path d="M 14.796875 -21.78125 C 14.796875 -19.289062 15.078125 -16.898438 15.640625 -14.609375 C 16.203125 -12.316406 16.976562 -10.289062 17.96875 -8.53125 C 18.957031 -6.769531 20.132812 -5.367188 21.5 -4.328125 C 22.863281 -3.285156 24.363281 -2.765625 26 -2.765625 C 31.101562 -2.765625 33.65625 -6.253906 33.65625 -13.234375 C 33.65625 -15.921875 33.390625 -18.394531 32.859375 -20.65625 C 32.328125 -22.914062 31.578125 -24.875 30.609375 -26.53125 C 29.648438 -28.1875 28.492188 -29.472656 27.140625 -30.390625 C 25.785156 -31.316406 24.285156 -31.78125 22.640625 -31.78125 C 17.410156 -31.78125 14.796875 -28.445312 14.796875 -21.78125 Z M 3.671875 -16.75 C 3.671875 -19.320312 4.191406 -21.75 5.234375 -24.03125 C 6.273438 -26.3125 7.734375 -28.300781 9.609375 -30 C 11.484375 -31.707031 13.71875 -33.054688 16.3125 -34.046875 C 18.914062 -35.035156 21.769531 -35.53125 24.875 -35.53125 C 27.757812 -35.53125 30.425781 -35.09375 32.875 -34.21875 C 35.320312 -33.351562 37.4375 -32.140625 39.21875 -30.578125 C 41 -29.015625 42.390625 -27.148438 43.390625 -24.984375 C 44.398438 -22.828125 44.90625 -20.460938 44.90625 -17.890625 C 44.90625 -15.304688 44.375 -12.875 43.3125 -10.59375 C 42.257812 -8.320312 40.789062 -6.332031 38.90625 -4.625 C 37.019531 -2.914062 34.773438 -1.566406 32.171875 -0.578125 C 29.566406 0.398438 26.703125 0.890625 23.578125 0.890625 C 20.828125 0.890625 18.238281 0.484375 15.8125 -0.328125 C 13.394531 -1.148438 11.285156 -2.320312 9.484375 -3.84375 C 7.691406 -5.363281 6.273438 -7.21875 5.234375 -9.40625 C 4.191406 -11.59375 3.671875 -14.039062 3.671875 -16.75 Z M 3.671875 -16.75 "/></g></g></g><g fill="#000000" fill-opacity="1"><g transform="translate(2072.42907, 918.70899)"><g><path d="M 16.515625 -56.65625 L 16.515625 -8.625 C 16.515625 -6.726562 16.957031 -5.289062 17.84375 -4.3125 C 18.726562 -3.332031 19.988281 -2.816406 21.625 -2.765625 L 21.625 0 L 0.5 0 L 0.5 -2.765625 L 1.484375 -2.765625 C 3.171875 -2.765625 4.375 -3.203125 5.09375 -4.078125 C 5.8125 -4.953125 6.171875 -6.46875 6.171875 -8.625 L 6.171875 -43.453125 C 6.171875 -45.046875 6.101562 -46.078125 5.96875 -46.546875 C 5.84375 -46.984375 5.601562 -47.367188 5.25 -47.703125 C 4.894531 -48.046875 4.457031 -48.34375 3.9375 -48.59375 C 3.414062 -48.84375 2.84375 -49.070312 2.21875 -49.28125 C 1.59375 -49.488281 0.941406 -49.679688 0.265625 -49.859375 L 0.265625 -52.359375 C 0.554688 -52.460938 1.078125 -52.625 1.828125 -52.84375 C 2.585938 -53.070312 3.460938 -53.328125 4.453125 -53.609375 C 5.441406 -53.898438 6.492188 -54.207031 7.609375 -54.53125 C 8.734375 -54.851562 9.789062 -55.15625 10.78125 -55.4375 C 11.769531 -55.726562 12.640625 -55.984375 13.390625 -56.203125 C 14.148438 -56.429688 14.671875 -56.582031 14.953125 -56.65625 Z M 16.515625 -56.65625 "/></g></g></g><g fill="#000000" fill-opacity="1"><g transform="translate(2095.347664, 918.70899)"><g><path d="M 14.796875 -21.78125 C 14.796875 -19.289062 15.078125 -16.898438 15.640625 -14.609375 C 16.203125 -12.316406 16.976562 -10.289062 17.96875 -8.53125 C 18.957031 -6.769531 20.132812 -5.367188 21.5 -4.328125 C 22.863281 -3.285156 24.363281 -2.765625 26 -2.765625 C 31.101562 -2.765625 33.65625 -6.253906 33.65625 -13.234375 C 33.65625 -15.921875 33.390625 -18.394531 32.859375 -20.65625 C 32.328125 -22.914062 31.578125 -24.875 30.609375 -26.53125 C 29.648438 -28.1875 28.492188 -29.472656 27.140625 -30.390625 C 25.785156 -31.316406 24.285156 -31.78125 22.640625 -31.78125 C 17.410156 -31.78125 14.796875 -28.445312 14.796875 -21.78125 Z M 3.671875 -16.75 C 3.671875 -19.320312 4.191406 -21.75 5.234375 -24.03125 C 6.273438 -26.3125 7.734375 -28.300781 9.609375 -30 C 11.484375 -31.707031 13.71875 -33.054688 16.3125 -34.046875 C 18.914062 -35.035156 21.769531 -35.53125 24.875 -35.53125 C 27.757812 -35.53125 30.425781 -35.09375 32.875 -34.21875 C 35.320312 -33.351562 37.4375 -32.140625 39.21875 -30.578125 C 41 -29.015625 42.390625 -27.148438 43.390625 -24.984375 C 44.398438 -22.828125 44.90625 -20.460938 44.90625 -17.890625 C 44.90625 -15.304688 44.375 -12.875 43.3125 -10.59375 C 42.257812 -8.320312 40.789062 -6.332031 38.90625 -4.625 C 37.019531 -2.914062 34.773438 -1.566406 32.171875 -0.578125 C 29.566406 0.398438 26.703125 0.890625 23.578125 0.890625 C 20.828125 0.890625 18.238281 0.484375 15.8125 -0.328125 C 13.394531 -1.148438 11.285156 -2.320312 9.484375 -3.84375 C 7.691406 -5.363281 6.273438 -7.21875 5.234375 -9.40625 C 4.191406 -11.59375 3.671875 -14.039062 3.671875 -16.75 Z M 3.671875 -16.75 "/></g></g></g><g fill="#000000" fill-opacity="1"><g transform="translate(2143.839841, 918.70899)"><g><path d="M 15.390625 -23.8125 C 15.390625 -17.59375 17.71875 -14.484375 22.375 -14.484375 C 26.28125 -14.484375 28.234375 -16.957031 28.234375 -21.90625 C 28.234375 -25.03125 27.664062 -27.457031 26.53125 -29.1875 C 25.394531 -30.914062 23.75 -31.78125 21.59375 -31.78125 C 17.457031 -31.78125 15.390625 -29.125 15.390625 -23.8125 Z M 23.265625 4.5625 C 21.859375 4.5625 20.53125 4.503906 19.28125 4.390625 C 18.039062 4.273438 16.882812 4.113281 15.8125 3.90625 C 14.90625 4.601562 14.117188 5.375 13.453125 6.21875 C 12.785156 7.070312 12.453125 7.847656 12.453125 8.546875 C 12.453125 9.484375 12.769531 10.390625 13.40625 11.265625 C 14.050781 12.140625 14.9375 12.914062 16.0625 13.59375 C 17.195312 14.269531 18.523438 14.804688 20.046875 15.203125 C 21.566406 15.609375 23.203125 15.8125 24.953125 15.8125 C 26.617188 15.8125 28.1875 15.640625 29.65625 15.296875 C 31.125 14.960938 32.40625 14.488281 33.5 13.875 C 34.59375 13.269531 35.457031 12.53125 36.09375 11.65625 C 36.738281 10.78125 37.0625 9.796875 37.0625 8.703125 C 37.0625 5.941406 34.726562 4.5625 30.0625 4.5625 Z M 45.53125 -35.1875 L 45.53125 -26.359375 L 37.21875 -28.3125 C 38.28125 -26.71875 38.8125 -24.921875 38.8125 -22.921875 C 38.8125 -20.867188 38.273438 -19.050781 37.203125 -17.46875 C 36.140625 -15.894531 34.609375 -14.601562 32.609375 -13.59375 C 31.878906 -13.25 31.035156 -12.925781 30.078125 -12.625 C 29.128906 -12.332031 28.132812 -12.082031 27.09375 -11.875 C 26.050781 -11.664062 24.992188 -11.5 23.921875 -11.375 C 22.859375 -11.257812 21.859375 -11.191406 20.921875 -11.171875 C 18.816406 -10.410156 17.125 -9.691406 15.84375 -9.015625 C 14.570312 -8.335938 13.9375 -7.738281 13.9375 -7.21875 C 13.9375 -5.375 17.410156 -4.453125 24.359375 -4.453125 L 31.828125 -4.453125 C 33.671875 -4.453125 35.375 -4.226562 36.9375 -3.78125 C 38.5 -3.34375 39.859375 -2.707031 41.015625 -1.875 C 42.171875 -1.039062 43.070312 -0.0078125 43.71875 1.21875 C 44.375 2.457031 44.703125 3.859375 44.703125 5.421875 C 44.703125 7.328125 44.15625 9.128906 43.0625 10.828125 C 41.96875 12.535156 40.398438 14.035156 38.359375 15.328125 C 36.316406 16.617188 33.816406 17.640625 30.859375 18.390625 C 27.910156 19.148438 24.5625 19.53125 20.8125 19.53125 C 18.394531 19.53125 16.128906 19.328125 14.015625 18.921875 C 11.910156 18.515625 10.078125 17.941406 8.515625 17.203125 C 6.953125 16.460938 5.726562 15.5625 4.84375 14.5 C 3.957031 13.445312 3.515625 12.285156 3.515625 11.015625 C 3.515625 10.023438 3.804688 9.117188 4.390625 8.296875 C 4.972656 7.472656 5.773438 6.816406 6.796875 6.328125 C 7.734375 5.910156 8.472656 5.5625 9.015625 5.28125 C 9.566406 5.007812 10.003906 4.753906 10.328125 4.515625 C 10.648438 4.285156 10.910156 4.0625 11.109375 3.84375 C 11.304688 3.625 11.507812 3.359375 11.71875 3.046875 C 6.894531 1.242188 4.484375 -1.394531 4.484375 -4.875 C 4.484375 -5.96875 4.875 -6.929688 5.65625 -7.765625 C 6.4375 -8.597656 7.554688 -9.351562 9.015625 -10.03125 C 9.535156 -10.238281 10.375 -10.53125 11.53125 -10.90625 C 12.695312 -11.289062 14.019531 -11.726562 15.5 -12.21875 C 13.519531 -12.320312 11.785156 -12.828125 10.296875 -13.734375 C 8.816406 -14.648438 7.519531 -15.96875 6.40625 -17.6875 C 5.957031 -18.445312 5.585938 -19.238281 5.296875 -20.0625 C 5.015625 -20.894531 4.863281 -21.71875 4.84375 -22.53125 C 4.84375 -24.269531 5.257812 -25.925781 6.09375 -27.5 C 6.925781 -29.082031 8.101562 -30.460938 9.625 -31.640625 C 11.144531 -32.828125 12.972656 -33.769531 15.109375 -34.46875 C 17.242188 -35.175781 19.613281 -35.53125 22.21875 -35.53125 C 23.257812 -35.53125 24.300781 -35.445312 25.34375 -35.28125 C 26.382812 -35.113281 27.398438 -34.875 28.390625 -34.5625 C 29.378906 -34.25 30.320312 -33.882812 31.21875 -33.46875 C 32.113281 -33.050781 32.925781 -32.609375 33.65625 -32.140625 Z M 45.53125 -35.1875 "/></g></g></g><g fill="#000000" fill-opacity="1"><g transform="translate(2190.575066, 918.70899)"><g><path d="M 19.53125 -0.8125 C 19.445312 -0.96875 19.226562 -1.410156 18.875 -2.140625 C 18.53125 -2.867188 18.085938 -3.773438 17.546875 -4.859375 C 17.015625 -5.941406 16.421875 -7.148438 15.765625 -8.484375 C 15.117188 -9.828125 14.453125 -11.195312 13.765625 -12.59375 C 13.078125 -13.988281 12.40625 -15.347656 11.75 -16.671875 C 11.101562 -18.003906 10.519531 -19.203125 10 -20.265625 C 9.476562 -21.328125 9.039062 -22.207031 8.6875 -22.90625 C 8.332031 -23.613281 8.128906 -24.019531 8.078125 -24.125 C 7.484375 -25.375 6.953125 -26.453125 6.484375 -27.359375 C 6.015625 -28.273438 5.609375 -28.929688 5.265625 -29.328125 C 4.617188 -30.078125 3.835938 -30.660156 2.921875 -31.078125 C 2.015625 -31.492188 1.066406 -31.726562 0.078125 -31.78125 L 0.078125 -34.5625 L 21.703125 -34.5625 L 21.703125 -31.78125 C 20.148438 -31.757812 19.050781 -31.554688 18.40625 -31.171875 C 17.769531 -30.796875 17.453125 -30.207031 17.453125 -29.40625 C 17.453125 -28.9375 17.585938 -28.335938 17.859375 -27.609375 C 18.140625 -26.878906 18.488281 -26.082031 18.90625 -25.21875 C 19.320312 -24.363281 19.753906 -23.476562 20.203125 -22.5625 C 20.660156 -21.65625 21.082031 -20.8125 21.46875 -20.03125 C 22.09375 -18.707031 22.71875 -17.398438 23.34375 -16.109375 C 23.96875 -14.816406 24.582031 -13.546875 25.1875 -12.296875 C 25.34375 -12.585938 25.585938 -13.070312 25.921875 -13.75 C 26.265625 -14.425781 26.648438 -15.195312 27.078125 -16.0625 C 27.503906 -16.9375 27.960938 -17.859375 28.453125 -18.828125 C 28.953125 -19.804688 29.414062 -20.722656 29.84375 -21.578125 C 30.28125 -22.441406 30.660156 -23.195312 30.984375 -23.84375 C 31.304688 -24.5 31.519531 -24.945312 31.625 -25.1875 C 32.144531 -26.300781 32.40625 -27.316406 32.40625 -28.234375 C 32.40625 -29.378906 31.941406 -30.242188 31.015625 -30.828125 C 30.097656 -31.410156 28.816406 -31.726562 27.171875 -31.78125 L 27.171875 -34.5625 L 42.984375 -34.5625 L 42.984375 -31.78125 C 42.023438 -31.570312 41.210938 -31.316406 40.546875 -31.015625 C 39.890625 -30.722656 39.300781 -30.332031 38.78125 -29.84375 C 38.257812 -29.363281 37.769531 -28.738281 37.3125 -27.96875 C 36.851562 -27.207031 36.328125 -26.253906 35.734375 -25.109375 C 35.628906 -24.898438 35.289062 -24.210938 34.71875 -23.046875 C 34.144531 -21.890625 33.421875 -20.421875 32.546875 -18.640625 C 31.671875 -16.859375 30.6875 -14.851562 29.59375 -12.625 C 28.5 -10.40625 27.382812 -8.140625 26.25 -5.828125 C 25.125 -3.523438 24.015625 -1.265625 22.921875 0.953125 C 21.828125 3.179688 20.84375 5.1875 19.96875 6.96875 C 19.101562 8.75 18.382812 10.222656 17.8125 11.390625 C 17.238281 12.566406 16.898438 13.257812 16.796875 13.46875 C 15.828125 15.425781 14.664062 16.953125 13.3125 18.046875 C 11.957031 19.140625 10.539062 19.6875 9.0625 19.6875 C 8.300781 19.6875 7.59375 19.5625 6.9375 19.3125 C 6.289062 19.0625 5.734375 18.710938 5.265625 18.265625 C 4.796875 17.828125 4.425781 17.304688 4.15625 16.703125 C 3.882812 16.109375 3.75 15.460938 3.75 14.765625 C 3.75 13.328125 4.125 12.191406 4.875 11.359375 C 5.632812 10.523438 6.675781 10.003906 8 9.796875 C 8.15625 9.796875 8.289062 9.773438 8.40625 9.734375 C 8.53125 9.703125 8.65625 9.660156 8.78125 9.609375 C 9.75 9.453125 10.628906 9.28125 11.421875 9.09375 C 12.210938 8.914062 12.96875 8.597656 13.6875 8.140625 C 14.40625 7.679688 15.101562 7.035156 15.78125 6.203125 C 16.457031 5.367188 17.144531 4.238281 17.84375 2.8125 Z M 19.53125 -0.8125 "/></g></g></g><g clip-path="url(#53135e464e)"><g clip-path="url(#2bf9235fc2)"><path fill="#ffffff" d="M 2920.039062 643.53125 L 3429.160156 643.53125 L 3429.160156 1152.652344 L 2920.039062 1152.652344 Z M 2920.039062 643.53125 " fill-opacity="1" fill-rule="nonzero"/></g></g><g fill="#000000" fill-opacity="1"><g transform="translate(3032.160921, 918.70899)"><g><path d="M 7.03125 -0.15625 C 7 -0.4375 6.929688 -0.960938 6.828125 -1.734375 C 6.722656 -2.503906 6.59375 -3.398438 6.4375 -4.421875 C 6.28125 -5.453125 6.125 -6.546875 5.96875 -7.703125 C 5.8125 -8.867188 5.65625 -9.984375 5.5 -11.046875 C 5.34375 -12.117188 5.207031 -13.0625 5.09375 -13.875 C 4.976562 -14.695312 4.894531 -15.289062 4.84375 -15.65625 L 8.3125 -15.65625 C 9.664062 -11.46875 11.550781 -8.296875 13.96875 -6.140625 C 16.394531 -3.992188 19.285156 -2.921875 22.640625 -2.921875 C 23.972656 -2.921875 25.226562 -3.113281 26.40625 -3.5 C 27.59375 -3.894531 28.632812 -4.453125 29.53125 -5.171875 C 30.4375 -5.890625 31.148438 -6.757812 31.671875 -7.78125 C 32.191406 -8.8125 32.453125 -9.953125 32.453125 -11.203125 C 32.453125 -12.585938 32.019531 -13.945312 31.15625 -15.28125 C 30.300781 -16.625 29.171875 -17.867188 27.765625 -19.015625 C 27.109375 -19.460938 26.023438 -20.132812 24.515625 -21.03125 C 23.003906 -21.925781 21.238281 -22.90625 19.21875 -23.96875 C 16.976562 -25.144531 15.054688 -26.253906 13.453125 -27.296875 C 11.847656 -28.335938 10.617188 -29.273438 9.765625 -30.109375 C 6.847656 -32.921875 5.390625 -36.265625 5.390625 -40.140625 C 5.390625 -42.171875 5.796875 -44.023438 6.609375 -45.703125 C 7.429688 -47.378906 8.597656 -48.828125 10.109375 -50.046875 C 11.617188 -51.273438 13.421875 -52.226562 15.515625 -52.90625 C 17.617188 -53.582031 19.957031 -53.921875 22.53125 -53.921875 C 23.9375 -53.921875 25.320312 -53.863281 26.6875 -53.75 C 28.050781 -53.632812 29.28125 -53.394531 30.375 -53.03125 L 30.734375 -52.90625 C 32.054688 -52.539062 33.132812 -52.25 33.96875 -52.03125 C 34.800781 -51.8125 35.257812 -51.703125 35.34375 -51.703125 C 35.625 -51.703125 35.929688 -51.796875 36.265625 -51.984375 C 36.609375 -52.179688 36.925781 -52.410156 37.21875 -52.671875 L 39.015625 -52.671875 C 39.035156 -52.492188 39.082031 -52.050781 39.15625 -51.34375 C 39.238281 -50.644531 39.335938 -49.828125 39.453125 -48.890625 C 39.578125 -47.953125 39.695312 -46.945312 39.8125 -45.875 C 39.925781 -44.8125 40.039062 -43.800781 40.15625 -42.84375 C 40.269531 -41.894531 40.363281 -41.0625 40.4375 -40.34375 C 40.519531 -39.632812 40.578125 -39.164062 40.609375 -38.9375 L 37.21875 -38.9375 C 36.75 -40.59375 36.0625 -42.109375 35.15625 -43.484375 C 34.257812 -44.867188 33.210938 -46.054688 32.015625 -47.046875 C 30.816406 -48.035156 29.488281 -48.800781 28.03125 -49.34375 C 26.570312 -49.894531 25.035156 -50.171875 23.421875 -50.171875 C 22.253906 -50.171875 21.175781 -50.019531 20.1875 -49.71875 C 19.195312 -49.425781 18.332031 -49.019531 17.59375 -48.5 C 16.851562 -47.976562 16.273438 -47.363281 15.859375 -46.65625 C 15.441406 -45.957031 15.234375 -45.203125 15.234375 -44.390625 C 15.234375 -42.023438 16.703125 -39.867188 19.640625 -37.921875 L 19.609375 -37.921875 C 19.816406 -37.816406 20.296875 -37.554688 21.046875 -37.140625 C 21.796875 -36.722656 22.613281 -36.28125 23.5 -35.8125 C 24.382812 -35.34375 25.210938 -34.898438 25.984375 -34.484375 C 26.753906 -34.066406 27.253906 -33.789062 27.484375 -33.65625 C 29.929688 -32.332031 32.117188 -30.984375 34.046875 -29.609375 C 35.972656 -28.242188 37.523438 -26.960938 38.703125 -25.765625 C 41.898438 -22.585938 43.5 -18.84375 43.5 -14.53125 C 43.5 -12.46875 43.046875 -10.484375 42.140625 -8.578125 C 41.242188 -6.679688 39.992188 -5.003906 38.390625 -3.546875 C 36.796875 -2.085938 34.898438 -0.921875 32.703125 -0.046875 C 30.503906 0.816406 28.101562 1.25 25.5 1.25 C 23.488281 1.25 20.742188 0.78125 17.265625 -0.15625 C 13.796875 -1.09375 11.695312 -1.5625 10.96875 -1.5625 C 10.238281 -1.5625 9.679688 -1.09375 9.296875 -0.15625 Z M 7.03125 -0.15625 "/></g></g></g><g fill="#000000" fill-opacity="1"><g transform="translate(3079.833182, 918.70899)"><g><path d="M 38.859375 -8.203125 C 36.847656 -5.285156 34.382812 -3.039062 31.46875 -1.46875 C 28.550781 0.101562 25.234375 0.890625 21.515625 0.890625 C 14.378906 0.890625 9.222656 -1.800781 6.046875 -7.1875 C 5.296875 -8.488281 4.722656 -9.847656 4.328125 -11.265625 C 3.941406 -12.679688 3.75 -14.210938 3.75 -15.859375 C 3.75 -19.523438 4.722656 -22.878906 6.671875 -25.921875 C 7.609375 -27.378906 8.738281 -28.6875 10.0625 -29.84375 C 11.394531 -31.007812 12.910156 -32.035156 14.609375 -32.921875 C 17.992188 -34.660156 21.675781 -35.53125 25.65625 -35.53125 C 27.394531 -35.53125 29.039062 -35.359375 30.59375 -35.015625 C 32.144531 -34.679688 33.5 -34.203125 34.65625 -33.578125 C 35.8125 -32.953125 36.726562 -32.191406 37.40625 -31.296875 C 38.082031 -30.398438 38.421875 -29.390625 38.421875 -28.265625 C 38.421875 -25.453125 36.988281 -24.046875 34.125 -24.046875 C 32.019531 -24.046875 29.882812 -25.296875 27.71875 -27.796875 C 25.507812 -30.296875 23.597656 -31.546875 21.984375 -31.546875 C 20.910156 -31.546875 19.9375 -31.203125 19.0625 -30.515625 C 18.195312 -29.828125 17.453125 -28.898438 16.828125 -27.734375 C 16.203125 -26.578125 15.71875 -25.222656 15.375 -23.671875 C 15.039062 -22.128906 14.875 -20.5 14.875 -18.78125 C 14.875 -16.644531 15.117188 -14.648438 15.609375 -12.796875 C 16.109375 -10.953125 16.820312 -9.347656 17.75 -7.984375 C 18.675781 -6.617188 19.785156 -5.546875 21.078125 -4.765625 C 22.378906 -3.984375 23.851562 -3.59375 25.5 -3.59375 C 27.34375 -3.59375 29.179688 -4.101562 31.015625 -5.125 C 32.859375 -6.15625 34.613281 -7.632812 36.28125 -9.5625 Z M 38.859375 -8.203125 "/></g></g></g><g fill="#000000" fill-opacity="1"><g transform="translate(3121.297507, 918.70899)"><g><path d="M 11.796875 -55.609375 C 12.703125 -55.609375 13.554688 -55.460938 14.359375 -55.171875 C 15.171875 -54.890625 15.875 -54.492188 16.46875 -53.984375 C 17.070312 -53.472656 17.554688 -52.863281 17.921875 -52.15625 C 18.285156 -51.457031 18.46875 -50.679688 18.46875 -49.828125 C 18.46875 -48.960938 18.285156 -48.175781 17.921875 -47.46875 C 17.554688 -46.769531 17.066406 -46.164062 16.453125 -45.65625 C 15.847656 -45.15625 15.140625 -44.757812 14.328125 -44.46875 C 13.523438 -44.1875 12.679688 -44.046875 11.796875 -44.046875 C 10.859375 -44.046875 9.972656 -44.1875 9.140625 -44.46875 C 8.304688 -44.757812 7.578125 -45.15625 6.953125 -45.65625 C 6.328125 -46.164062 5.832031 -46.78125 5.46875 -47.5 C 5.101562 -48.21875 4.921875 -48.992188 4.921875 -49.828125 C 4.921875 -50.609375 5.113281 -51.347656 5.5 -52.046875 C 5.894531 -52.753906 6.414062 -53.375 7.0625 -53.90625 C 7.71875 -54.4375 8.453125 -54.851562 9.265625 -55.15625 C 10.085938 -55.457031 10.929688 -55.609375 11.796875 -55.609375 Z M 22.484375 0 L 1.28125 0 L 1.28125 -2.765625 L 2.1875 -2.765625 C 3.875 -2.765625 5.078125 -3.207031 5.796875 -4.09375 C 6.515625 -4.976562 6.875 -6.488281 6.875 -8.625 L 6.875 -24.875 C 6.875 -25.550781 6.796875 -26.097656 6.640625 -26.515625 C 6.484375 -26.929688 6.203125 -27.296875 5.796875 -27.609375 C 5.390625 -27.921875 4.820312 -28.21875 4.09375 -28.5 C 3.363281 -28.789062 2.425781 -29.128906 1.28125 -29.515625 L 1.28125 -31.625 C 3.601562 -32.382812 6.019531 -33.1875 8.53125 -34.03125 C 11.039062 -34.875 13.457031 -35.6875 15.78125 -36.46875 L 17.34375 -36.46875 L 17.34375 -8.078125 C 17.34375 -6.359375 17.785156 -5.054688 18.671875 -4.171875 C 19.554688 -3.285156 20.828125 -2.816406 22.484375 -2.765625 Z M 22.484375 0 "/></g></g></g><g fill="#000000" fill-opacity="1"><g transform="translate(3146.012119, 918.70899)"><g><path d="M 26.234375 -21.046875 C 26.109375 -24.398438 25.554688 -26.972656 24.578125 -28.765625 C 23.597656 -30.566406 22.144531 -31.46875 20.21875 -31.46875 C 19.46875 -31.46875 18.726562 -31.265625 18 -30.859375 C 17.269531 -30.460938 16.625 -29.875 16.0625 -29.09375 C 15.507812 -28.3125 15.054688 -27.363281 14.703125 -26.25 C 14.347656 -25.144531 14.171875 -23.890625 14.171875 -22.484375 C 14.171875 -22.273438 14.175781 -22.035156 14.1875 -21.765625 C 14.207031 -21.492188 14.226562 -21.253906 14.25 -21.046875 Z M 37.21875 -9.921875 C 36.125 -8.410156 34.910156 -6.992188 33.578125 -5.671875 C 32.253906 -4.359375 30.847656 -3.222656 29.359375 -2.265625 C 27.671875 -1.273438 25.957031 -0.503906 24.21875 0.046875 C 22.488281 0.609375 20.753906 0.890625 19.015625 0.890625 C 16.828125 0.890625 14.796875 0.488281 12.921875 -0.3125 C 11.046875 -1.113281 9.410156 -2.265625 8.015625 -3.765625 C 6.628906 -5.265625 5.546875 -7.082031 4.765625 -9.21875 C 3.984375 -11.351562 3.59375 -13.75 3.59375 -16.40625 C 3.59375 -19.082031 4.019531 -21.582031 4.875 -23.90625 C 5.738281 -26.238281 6.957031 -28.265625 8.53125 -29.984375 C 10.101562 -31.703125 12.003906 -33.054688 14.234375 -34.046875 C 16.460938 -35.035156 18.941406 -35.53125 21.671875 -35.53125 C 23.546875 -35.53125 25.28125 -35.226562 26.875 -34.625 C 28.476562 -34.03125 29.898438 -33.207031 31.140625 -32.15625 C 32.378906 -31.101562 33.421875 -29.835938 34.265625 -28.359375 C 35.109375 -26.890625 35.710938 -25.285156 36.078125 -23.546875 C 36.285156 -22.660156 36.539062 -21.945312 36.84375 -21.40625 C 37.144531 -20.875 37.515625 -20.46875 37.953125 -20.1875 L 37.953125 -17.6875 L 14.484375 -17.6875 C 14.742188 -16.175781 15.191406 -14.691406 15.828125 -13.234375 C 16.472656 -11.773438 17.253906 -10.472656 18.171875 -9.328125 C 19.097656 -8.179688 20.125 -7.25 21.25 -6.53125 C 22.382812 -5.820312 23.59375 -5.46875 24.875 -5.46875 C 26.351562 -5.46875 27.953125 -5.976562 29.671875 -7 C 31.390625 -8.03125 33.226562 -9.550781 35.1875 -11.5625 Z M 37.21875 -9.921875 "/></g></g></g><g fill="#000000" fill-opacity="1"><g transform="translate(3186.539396, 918.70899)"><g><path d="M 41.9375 -7.765625 C 41.9375 -6.859375 42.019531 -6.09375 42.1875 -5.46875 C 42.351562 -4.84375 42.628906 -4.332031 43.015625 -3.9375 C 43.410156 -3.550781 43.914062 -3.265625 44.53125 -3.078125 C 45.144531 -2.898438 45.878906 -2.796875 46.734375 -2.765625 L 46.734375 0 L 26.671875 0 L 26.671875 -2.765625 C 27.554688 -2.847656 28.300781 -3.078125 28.90625 -3.453125 C 29.519531 -3.828125 30.019531 -4.382812 30.40625 -5.125 C 30.800781 -5.875 31.085938 -6.835938 31.265625 -8.015625 C 31.453125 -9.203125 31.546875 -10.628906 31.546875 -12.296875 L 31.546875 -19.6875 C 31.546875 -25.875 29.816406 -28.96875 26.359375 -28.96875 C 25.179688 -28.96875 23.828125 -28.640625 22.296875 -27.984375 C 20.765625 -27.335938 19.140625 -26.414062 17.421875 -25.21875 L 17.421875 -8.203125 C 17.421875 -4.578125 19.070312 -2.765625 22.375 -2.765625 L 23.15625 -2.765625 L 23.15625 0 L 1.71875 0 L 1.71875 -2.765625 L 2.21875 -2.765625 C 3.96875 -2.765625 5.207031 -3.21875 5.9375 -4.125 C 6.664062 -5.039062 7.03125 -6.539062 7.03125 -8.625 L 7.03125 -25.109375 C 7.03125 -25.941406 6.691406 -26.675781 6.015625 -27.3125 C 5.335938 -27.945312 4.375 -28.472656 3.125 -28.890625 C 3.039062 -28.941406 2.925781 -28.988281 2.78125 -29.03125 C 2.644531 -29.070312 2.5625 -29.078125 2.53125 -29.046875 C 2.375 -29.097656 2.203125 -29.160156 2.015625 -29.234375 C 1.835938 -29.316406 1.609375 -29.382812 1.328125 -29.4375 L 1.328125 -31.546875 C 1.585938 -31.628906 2.085938 -31.800781 2.828125 -32.0625 C 3.566406 -32.320312 4.429688 -32.613281 5.421875 -32.9375 C 6.410156 -33.257812 7.457031 -33.613281 8.5625 -34 C 9.675781 -34.394531 10.726562 -34.753906 11.71875 -35.078125 C 12.707031 -35.410156 13.570312 -35.707031 14.3125 -35.96875 C 15.050781 -36.226562 15.539062 -36.394531 15.78125 -36.46875 L 17.421875 -36.46875 L 17.421875 -28.9375 C 20.742188 -31.144531 23.6875 -32.796875 26.25 -33.890625 C 28.820312 -34.984375 31.082031 -35.53125 33.03125 -35.53125 C 36.207031 -35.53125 38.484375 -34.335938 39.859375 -31.953125 C 41.242188 -29.578125 41.9375 -25.898438 41.9375 -20.921875 Z M 41.9375 -7.765625 "/></g></g></g><g fill="#000000" fill-opacity="1"><g transform="translate(3235.031573, 918.70899)"><g><path d="M 38.859375 -8.203125 C 36.847656 -5.285156 34.382812 -3.039062 31.46875 -1.46875 C 28.550781 0.101562 25.234375 0.890625 21.515625 0.890625 C 14.378906 0.890625 9.222656 -1.800781 6.046875 -7.1875 C 5.296875 -8.488281 4.722656 -9.847656 4.328125 -11.265625 C 3.941406 -12.679688 3.75 -14.210938 3.75 -15.859375 C 3.75 -19.523438 4.722656 -22.878906 6.671875 -25.921875 C 7.609375 -27.378906 8.738281 -28.6875 10.0625 -29.84375 C 11.394531 -31.007812 12.910156 -32.035156 14.609375 -32.921875 C 17.992188 -34.660156 21.675781 -35.53125 25.65625 -35.53125 C 27.394531 -35.53125 29.039062 -35.359375 30.59375 -35.015625 C 32.144531 -34.679688 33.5 -34.203125 34.65625 -33.578125 C 35.8125 -32.953125 36.726562 -32.191406 37.40625 -31.296875 C 38.082031 -30.398438 38.421875 -29.390625 38.421875 -28.265625 C 38.421875 -25.453125 36.988281 -24.046875 34.125 -24.046875 C 32.019531 -24.046875 29.882812 -25.296875 27.71875 -27.796875 C 25.507812 -30.296875 23.597656 -31.546875 21.984375 -31.546875 C 20.910156 -31.546875 19.9375 -31.203125 19.0625 -30.515625 C 18.195312 -29.828125 17.453125 -28.898438 16.828125 -27.734375 C 16.203125 -26.578125 15.71875 -25.222656 15.375 -23.671875 C 15.039062 -22.128906 14.875 -20.5 14.875 -18.78125 C 14.875 -16.644531 15.117188 -14.648438 15.609375 -12.796875 C 16.109375 -10.953125 16.820312 -9.347656 17.75 -7.984375 C 18.675781 -6.617188 19.785156 -5.546875 21.078125 -4.765625 C 22.378906 -3.984375 23.851562 -3.59375 25.5 -3.59375 C 27.34375 -3.59375 29.179688 -4.101562 31.015625 -5.125 C 32.859375 -6.15625 34.613281 -7.632812 36.28125 -9.5625 Z M 38.859375 -8.203125 "/></g></g></g><g fill="#000000" fill-opacity="1"><g transform="translate(3276.495898, 918.70899)"><g><path d="M 26.234375 -21.046875 C 26.109375 -24.398438 25.554688 -26.972656 24.578125 -28.765625 C 23.597656 -30.566406 22.144531 -31.46875 20.21875 -31.46875 C 19.46875 -31.46875 18.726562 -31.265625 18 -30.859375 C 17.269531 -30.460938 16.625 -29.875 16.0625 -29.09375 C 15.507812 -28.3125 15.054688 -27.363281 14.703125 -26.25 C 14.347656 -25.144531 14.171875 -23.890625 14.171875 -22.484375 C 14.171875 -22.273438 14.175781 -22.035156 14.1875 -21.765625 C 14.207031 -21.492188 14.226562 -21.253906 14.25 -21.046875 Z M 37.21875 -9.921875 C 36.125 -8.410156 34.910156 -6.992188 33.578125 -5.671875 C 32.253906 -4.359375 30.847656 -3.222656 29.359375 -2.265625 C 27.671875 -1.273438 25.957031 -0.503906 24.21875 0.046875 C 22.488281 0.609375 20.753906 0.890625 19.015625 0.890625 C 16.828125 0.890625 14.796875 0.488281 12.921875 -0.3125 C 11.046875 -1.113281 9.410156 -2.265625 8.015625 -3.765625 C 6.628906 -5.265625 5.546875 -7.082031 4.765625 -9.21875 C 3.984375 -11.351562 3.59375 -13.75 3.59375 -16.40625 C 3.59375 -19.082031 4.019531 -21.582031 4.875 -23.90625 C 5.738281 -26.238281 6.957031 -28.265625 8.53125 -29.984375 C 10.101562 -31.703125 12.003906 -33.054688 14.234375 -34.046875 C 16.460938 -35.035156 18.941406 -35.53125 21.671875 -35.53125 C 23.546875 -35.53125 25.28125 -35.226562 26.875 -34.625 C 28.476562 -34.03125 29.898438 -33.207031 31.140625 -32.15625 C 32.378906 -31.101562 33.421875 -29.835938 34.265625 -28.359375 C 35.109375 -26.890625 35.710938 -25.285156 36.078125 -23.546875 C 36.285156 -22.660156 36.539062 -21.945312 36.84375 -21.40625 C 37.144531 -20.875 37.515625 -20.46875 37.953125 -20.1875 L 37.953125 -17.6875 L 14.484375 -17.6875 C 14.742188 -16.175781 15.191406 -14.691406 15.828125 -13.234375 C 16.472656 -11.773438 17.253906 -10.472656 18.171875 -9.328125 C 19.097656 -8.179688 20.125 -7.25 21.25 -6.53125 C 22.382812 -5.820312 23.59375 -5.46875 24.875 -5.46875 C 26.351562 -5.46875 27.953125 -5.976562 29.671875 -7 C 31.390625 -8.03125 33.226562 -9.550781 35.1875 -11.5625 Z M 37.21875 -9.921875 "/></g></g></g><path fill="#ffffff" d="M 2015.773438 1152.652344 L 2015.773438 1165.398438 L 2003.027344 1165.398438 L 2003.027344 1152.652344 Z M 2015.773438 1178.144531 L 2015.773438 1190.890625 L 2003.027344 1190.890625 L 2003.027344 1178.144531 Z M 2015.773438 1203.632812 L 2015.773438 1216.378906 L 2003.027344 1216.378906 L 2003.027344 1203.632812 Z M 2015.773438 1229.125 L 2015.773438 1241.871094 L 2003.027344 1241.871094 L 2003.027344 1229.125 Z M 2015.773438 1254.613281 L 2015.773438 1267.359375 L 2003.027344 1267.359375 L 2003.027344 1254.613281 Z M 2015.773438 1280.105469 L 2015.773438 1288.289062 C 2015.773438 1289.289062 2015.894531 1290.265625 2016.144531 1291.21875 L 2003.804688 1294.417969 C 2003.285156 1292.414062 2003.027344 1290.371094 2003.027344 1288.289062 L 2003.027344 1280.105469 Z M 2020.78125 1297.847656 C 2022.761719 1299.222656 2024.96875 1299.90625 2027.390625 1299.90625 L 2029.285156 1299.90625 L 2029.285156 1312.652344 L 2027.390625 1312.652344 C 2022.308594 1312.652344 2017.683594 1311.207031 2013.515625 1308.320312 Z M 2042.03125 1299.90625 L 2054.777344 1299.90625 L 2054.777344 1312.652344 L 2042.03125 1312.652344 Z M 2067.523438 1299.90625 L 2080.265625 1299.90625 L 2080.265625 1312.652344 L 2067.523438 1312.652344 Z M 2093.011719 1299.90625 L 2105.757812 1299.90625 L 2105.757812 1312.652344 L 2093.011719 1312.652344 Z M 2118.503906 1299.90625 L 2131.246094 1299.90625 L 2131.246094 1312.652344 L 2118.503906 1312.652344 Z M 2143.992188 1299.90625 L 2156.738281 1299.90625 L 2156.738281 1312.652344 L 2143.992188 1312.652344 Z M 2169.484375 1299.90625 L 2182.226562 1299.90625 L 2182.226562 1312.652344 L 2169.484375 1312.652344 Z M 2194.972656 1299.90625 L 2207.71875 1299.90625 L 2207.71875 1312.652344 L 2194.972656 1312.652344 Z M 2220.464844 1299.90625 L 2233.207031 1299.90625 L 2233.207031 1312.652344 L 2220.464844 1312.652344 Z M 2245.953125 1299.90625 L 2258.699219 1299.90625 L 2258.699219 1312.652344 L 2245.953125 1312.652344 Z M 2271.445312 1299.90625 L 2284.1875 1299.90625 L 2284.1875 1312.652344 L 2271.445312 1312.652344 Z M 2296.933594 1299.90625 L 2309.679688 1299.90625 L 2309.679688 1312.652344 L 2296.933594 1312.652344 Z M 2322.425781 1299.90625 L 2335.167969 1299.90625 L 2335.167969 1312.652344 L 2322.425781 1312.652344 Z M 2347.914062 1299.90625 L 2360.660156 1299.90625 L 2360.660156 1312.652344 L 2347.914062 1312.652344 Z M 2373.402344 1299.90625 L 2386.148438 1299.90625 L 2386.148438 1312.652344 L 2373.402344 1312.652344 Z M 2398.894531 1299.90625 L 2411.640625 1299.90625 L 2411.640625 1312.652344 L 2398.894531 1312.652344 Z M 2424.382812 1299.90625 L 2437.128906 1299.90625 L 2437.128906 1312.652344 L 2424.382812 1312.652344 Z M 2449.875 1299.90625 L 2462.621094 1299.90625 L 2462.621094 1312.652344 L 2449.875 1312.652344 Z M 2475.363281 1299.90625 L 2488.109375 1299.90625 L 2488.109375 1312.652344 L 2475.363281 1312.652344 Z M 2500.855469 1299.90625 L 2513.601562 1299.90625 L 2513.601562 1312.652344 L 2500.855469 1312.652344 Z M 2526.34375 1299.90625 L 2539.089844 1299.90625 L 2539.089844 1312.652344 L 2526.34375 1312.652344 Z M 2551.835938 1299.90625 L 2564.582031 1299.90625 L 2564.582031 1312.652344 L 2551.835938 1312.652344 Z M 2577.324219 1299.90625 L 2590.070312 1299.90625 L 2590.070312 1312.652344 L 2577.324219 1312.652344 Z M 2577.324219 1299.90625 " fill-opacity="1" fill-rule="nonzero"/><path fill="#ffffff" d="M 2599.871094 1306.28125 L 2599.871094 1319.027344 L 2587.125 1319.027344 L 2587.125 1306.28125 M 2599.871094 1331.769531 L 2599.871094 1344.515625 L 2587.125 1344.515625 L 2587.125 1331.769531 M 2599.871094 1357.261719 L 2599.871094 1370.007812 L 2587.125 1370.007812 L 2587.125 1357.261719 M 2599.871094 1382.75 L 2599.871094 1395.496094 L 2587.125 1395.496094 L 2587.125 1382.75 M 2599.871094 1408.242188 L 2599.871094 1420.988281 L 2587.125 1420.988281 L 2587.125 1408.242188 M 2599.871094 1433.730469 L 2599.871094 1446.476562 L 2587.125 1446.476562 L 2587.125 1433.730469 M 2599.871094 1459.222656 L 2599.871094 1471.964844 L 2587.125 1471.964844 L 2587.125 1459.222656 M 2599.871094 1484.710938 L 2599.871094 1497.457031 L 2587.125 1497.457031 L 2587.125 1484.710938 M 2599.871094 1510.203125 L 2599.871094 1522.945312 L 2587.125 1522.945312 L 2587.125 1510.203125 M 2599.871094 1535.691406 L 2599.871094 1548.4375 L 2587.125 1548.4375 L 2587.125 1535.691406 M 2599.871094 1561.183594 L 2599.871094 1573.925781 L 2587.125 1573.925781 L 2587.125 1561.183594 M 2599.871094 1586.671875 L 2599.871094 1599.417969 L 2587.125 1599.417969 L 2587.125 1586.671875 M 2599.871094 1612.164062 L 2599.871094 1624.90625 L 2587.125 1624.90625 L 2587.125 1612.164062 M 2599.871094 1637.652344 L 2599.871094 1650.398438 L 2587.125 1650.398438 L 2587.125 1637.652344 M 2599.871094 1663.144531 L 2599.871094 1675.886719 L 2587.125 1675.886719 L 2587.125 1663.144531 M 2599.871094 1688.632812 L 2599.871094 1701.378906 L 2587.125 1701.378906 L 2587.125 1688.632812 M 2599.871094 1714.125 L 2599.871094 1726.867188 L 2587.125 1726.867188 L 2587.125 1714.125 M 2599.871094 1739.613281 L 2599.871094 1752.359375 L 2587.125 1752.359375 L 2587.125 1739.613281 M 2599.871094 1765.105469 L 2599.871094 1777.847656 L 2587.125 1777.847656 L 2587.125 1765.105469 M 2599.871094 1790.59375 L 2599.871094 1803.339844 L 2587.125 1803.339844 L 2587.125 1790.59375 M 2599.871094 1816.082031 L 2599.871094 1828.828125 L 2587.125 1828.828125 L 2587.125 1816.082031 M 2599.871094 1841.574219 L 2599.871094 1854.320312 L 2587.125 1854.320312 L 2587.125 1841.574219 M 2599.871094 1867.0625 L 2599.871094 1879.808594 L 2587.125 1879.808594 L 2587.125 1867.0625 M 2599.871094 1892.554688 L 2599.871094 1905.300781 L 2587.125 1905.300781 L 2587.125 1892.554688 " fill-opacity="1" fill-rule="nonzero"/><path stroke-linecap="round" transform="matrix(0.749711, 0, 0, 0.749711, 2587.126772, 1306.2806)" fill-opacity="1" fill="#ffffff" fill-rule="nonzero" stroke-linejoin="round" d="M 34.000334 812.746631 L 8.500916 846.749329 L -16.998503 812.746631 Z M 34.000334 812.746631 " stroke="#ffffff" stroke-width="17" stroke-opacity="1" stroke-miterlimit="4"/><path fill="#ffffff" d="M 3180.972656 1152.652344 L 3180.972656 1165.398438 L 3168.226562 1165.398438 L 3168.226562 1152.652344 Z M 3180.972656 1178.144531 L 3180.972656 1190.890625 L 3168.226562 1190.890625 L 3168.226562 1178.144531 Z M 3180.972656 1203.632812 L 3180.972656 1216.378906 L 3168.226562 1216.378906 L 3168.226562 1203.632812 Z M 3180.972656 1229.125 L 3180.972656 1241.871094 L 3168.226562 1241.871094 L 3168.226562 1229.125 Z M 3180.972656 1254.613281 L 3180.972656 1267.359375 L 3168.226562 1267.359375 L 3168.226562 1254.613281 Z M 3180.972656 1280.105469 L 3180.972656 1288.289062 C 3180.972656 1290.371094 3180.714844 1292.414062 3180.195312 1294.417969 L 3167.855469 1291.21875 C 3168.105469 1290.265625 3168.226562 1289.289062 3168.226562 1288.289062 L 3168.226562 1280.105469 Z M 3170.480469 1308.320312 C 3166.316406 1311.207031 3161.691406 1312.652344 3156.605469 1312.652344 L 3154.710938 1312.652344 L 3154.710938 1299.90625 L 3156.605469 1299.90625 C 3159.03125 1299.90625 3161.238281 1299.222656 3163.21875 1297.847656 Z M 3141.96875 1312.652344 L 3129.222656 1312.652344 L 3129.222656 1299.90625 L 3141.96875 1299.90625 Z M 3116.476562 1312.652344 L 3103.734375 1312.652344 L 3103.734375 1299.90625 L 3116.476562 1299.90625 Z M 3090.988281 1312.652344 L 3078.242188 1312.652344 L 3078.242188 1299.90625 L 3090.988281 1299.90625 Z M 3065.496094 1312.652344 L 3052.753906 1312.652344 L 3052.753906 1299.90625 L 3065.496094 1299.90625 Z M 3040.007812 1312.652344 L 3027.261719 1312.652344 L 3027.261719 1299.90625 L 3040.007812 1299.90625 Z M 3014.515625 1312.652344 L 3001.773438 1312.652344 L 3001.773438 1299.90625 L 3014.515625 1299.90625 Z M 2989.027344 1312.652344 L 2976.28125 1312.652344 L 2976.28125 1299.90625 L 2989.027344 1299.90625 Z M 2963.535156 1312.652344 L 2950.792969 1312.652344 L 2950.792969 1299.90625 L 2963.535156 1299.90625 Z M 2938.046875 1312.652344 L 2925.300781 1312.652344 L 2925.300781 1299.90625 L 2938.046875 1299.90625 Z M 2912.554688 1312.652344 L 2899.8125 1312.652344 L 2899.8125 1299.90625 L 2912.554688 1299.90625 Z M 2887.066406 1312.652344 L 2874.320312 1312.652344 L 2874.320312 1299.90625 L 2887.066406 1299.90625 Z M 2861.574219 1312.652344 L 2848.832031 1312.652344 L 2848.832031 1299.90625 L 2861.574219 1299.90625 Z M 2836.085938 1312.652344 L 2823.339844 1312.652344 L 2823.339844 1299.90625 L 2836.085938 1299.90625 Z M 2810.59375 1312.652344 L 2797.851562 1312.652344 L 2797.851562 1299.90625 L 2810.59375 1299.90625 Z M 2785.105469 1312.652344 L 2772.359375 1312.652344 L 2772.359375 1299.90625 L 2785.105469 1299.90625 Z M 2759.617188 1312.652344 L 2746.871094 1312.652344 L 2746.871094 1299.90625 L 2759.617188 1299.90625 Z M 2734.125 1312.652344 L 2721.378906 1312.652344 L 2721.378906 1299.90625 L 2734.125 1299.90625 Z M 2708.636719 1312.652344 L 2695.890625 1312.652344 L 2695.890625 1299.90625 L 2708.636719 1299.90625 Z M 2683.144531 1312.652344 L 2670.398438 1312.652344 L 2670.398438 1299.90625 L 2683.144531 1299.90625 Z M 2657.65625 1312.652344 L 2644.910156 1312.652344 L 2644.910156 1299.90625 L 2657.65625 1299.90625 Z M 2632.164062 1312.652344 L 2619.417969 1312.652344 L 2619.417969 1299.90625 L 2632.164062 1299.90625 Z M 2606.675781 1312.652344 L 2593.929688 1312.652344 L 2593.929688 1299.90625 L 2606.675781 1299.90625 Z M 2606.675781 1312.652344 " fill-opacity="1" fill-rule="nonzero"/></svg>